<!-- Generator: Adobe Illustrator 23.0.5, SVG Export Plug-In  -->
<svg version="1.1" xmlns="http://www.w3.org/2000/svg" xmlns:xlink="http://www.w3.org/1999/xlink" x="0px" y="0px" width="241.3px"
	 height="241.3px" viewBox="0 0 241.3 241.3" style="enable-background:new 0 0 241.3 241.3;" xml:space="preserve">
<style type="text/css">
	.st0{fill:#EEBA2B;}
	.st1{fill:url(#SVGID_1_);}
	.st2{fill:url(#SVGID_2_);}
	.st3{fill:url(#SVGID_3_);}
	.st4{fill:url(#SVGID_4_);}
	.st5{fill:url(#SVGID_5_);}
	.st6{fill:url(#SVGID_6_);}
	.st7{fill:url(#SVGID_7_);}
	.st8{fill:url(#SVGID_8_);}
	.st9{fill:url(#SVGID_9_);}
	.st10{fill:url(#SVGID_10_);}
	.st11{fill:url(#SVGID_11_);}
	.st12{fill:url(#SVGID_12_);}
	.st13{fill:url(#SVGID_13_);}
	.st14{fill:url(#SVGID_14_);}
	.st15{fill:url(#SVGID_15_);}
	.st16{fill:url(#SVGID_16_);}
	.st17{fill:url(#SVGID_17_);}
	.st18{fill:url(#SVGID_18_);}
	.st19{fill:url(#SVGID_19_);}
	.st20{fill:url(#SVGID_20_);}
	.st21{fill:url(#SVGID_21_);}
	.st22{fill:url(#SVGID_22_);}
	.st23{fill:url(#SVGID_23_);}
	.st24{fill:url(#SVGID_24_);}
	.st25{fill:url(#SVGID_25_);}
	.st26{fill:url(#SVGID_26_);}
	.st27{fill:url(#SVGID_27_);}
	.st28{fill:url(#SVGID_28_);}
	.st29{fill:url(#SVGID_29_);}
	.st30{fill:url(#SVGID_30_);}
	.st31{fill:url(#SVGID_31_);}
	.st32{fill:url(#SVGID_32_);}
	.st33{fill:url(#SVGID_33_);}
	.st34{fill:url(#SVGID_34_);}
	.st35{fill:url(#SVGID_35_);}
	.st36{fill:url(#SVGID_36_);}
	.st37{fill:url(#SVGID_37_);}
	.st38{fill:url(#SVGID_38_);}
	.st39{fill:url(#SVGID_39_);}
	.st40{fill:url(#SVGID_40_);}
	.st41{fill:url(#SVGID_41_);}
	.st42{fill:url(#SVGID_42_);}
	.st43{fill:url(#SVGID_43_);}
	.st44{fill:url(#SVGID_44_);}
	.st45{fill:url(#SVGID_45_);}
	.st46{fill:url(#SVGID_46_);}
	.st47{fill:url(#SVGID_47_);}
	.st48{fill:url(#SVGID_48_);}
	.st49{fill:url(#SVGID_49_);}
	.st50{fill:url(#SVGID_50_);}
	.st51{fill:url(#SVGID_51_);}
	.st52{fill:url(#SVGID_52_);}
	.st53{fill:url(#SVGID_53_);}
	.st54{fill:url(#SVGID_54_);}
	.st55{fill:url(#SVGID_55_);}
	.st56{fill:url(#SVGID_56_);}
	.st57{fill:url(#SVGID_57_);}
	.st58{fill:url(#SVGID_58_);}
	.st59{fill:url(#SVGID_59_);}
	.st60{fill:url(#SVGID_60_);}
</style>
<defs>
</defs>
<path class="st0" d="M234.4,103.9l-21.5-21.5V52c0-13-10.6-23.6-23.6-23.6h-30.4L137.3,6.9c-9.2-9.2-24.2-9.2-33.4,0L82.4,28.4H52
	C39,28.4,28.4,39,28.4,52v30.4L6.9,103.9c-9.2,9.2-9.2,24.2,0,33.4l21.5,21.5v30.4c0,13,10.6,23.6,23.6,23.6h30.4l21.5,21.5
	c9.2,9.2,24.2,9.2,33.4,0l21.5-21.5h30.4c13,0,23.6-10.6,23.6-23.6v-30.4l21.5-21.5C243.6,128.1,243.6,113.2,234.4,103.9z
	 M227.3,133.9l-21.8,21.8v30.9c0,10.4-8.4,18.8-18.8,18.8h-30.9l-21.8,21.8c-7.3,7.3-19.2,7.3-26.6,0l-21.8-21.8H54.6
	c-10.4,0-18.8-8.4-18.8-18.8v-30.9L14,133.9c-7.3-7.3-7.3-19.2,0-26.6l21.8-21.8V54.6c0-10.4,8.4-18.8,18.8-18.8h30.9L107.4,14
	c7.3-7.3,19.2-7.3,26.6,0l21.8,21.8h30.9c10.4,0,18.8,8.4,18.8,18.8v30.9l21.8,21.8C234.7,114.7,234.7,126.6,227.3,133.9z"/>
<g>
	<g>
		
			<linearGradient id="SVGID_1_" gradientUnits="userSpaceOnUse" x1="97.8642" y1="144.5769" x2="128.8665" y2="129.372" gradientTransform="matrix(1 0 0 -1 0 243.2839)">
			<stop  offset="0" style="stop-color:#FEF0AE"/>
			<stop  offset="1" style="stop-color:#FBC56D"/>
		</linearGradient>
		<path class="st1" d="M156,122l-13.6-28.9c-1.1-2.4-4.1-3.1-6.2-1.5l-4.4,3.3c-0.9,0.7-5.5,4.4-10.1,4.4c-4.6,0-9.2-3.7-10.1-4.4
			l-4.4-3.3c-2.1-1.6-5.1-0.8-6.2,1.5L87.3,122L156,122L156,122z"/>
		
			<linearGradient id="SVGID_2_" gradientUnits="userSpaceOnUse" x1="121.6418" y1="163.8326" x2="121.6418" y2="143.2621" gradientTransform="matrix(1 0 0 -1 0 243.2839)">
			<stop  offset="0" style="stop-color:#DC8758;stop-opacity:0"/>
			<stop  offset="0.2153" style="stop-color:#DD8654;stop-opacity:0.215"/>
			<stop  offset="0.4291" style="stop-color:#E28448;stop-opacity:0.429"/>
			<stop  offset="0.6424" style="stop-color:#EA8034;stop-opacity:0.642"/>
			<stop  offset="0.8543" style="stop-color:#F47B18;stop-opacity:0.854"/>
			<stop  offset="1" style="stop-color:#FE7701"/>
		</linearGradient>
		<path class="st2" d="M156,122l-13.6-28.9c-1.1-2.4-4.1-3.1-6.2-1.5l-4.4,3.3c-0.9,0.7-5.5,4.4-10.1,4.4c-4.6,0-9.2-3.7-10.1-4.4
			l-4.4-3.3c-2.1-1.6-5.1-0.8-6.2,1.5L87.3,122L156,122L156,122z"/>
		
			<linearGradient id="SVGID_3_" gradientUnits="userSpaceOnUse" x1="110.336" y1="136.8792" x2="127.5541" y2="136.8792" gradientTransform="matrix(1 0 0 -1 0 243.2839)">
			<stop  offset="0" style="stop-color:#FEF0AE"/>
			<stop  offset="1" style="stop-color:#FBC56D"/>
		</linearGradient>
		<path class="st3" d="M159.1,125.7l5.5-31.3c0.7-3.8-3.4-6.7-6.8-4.8l-12.7,7.1c-6.4,3.6-14.6,1.7-18.6-4.5l-2.6-3.9
			c-1.1-1.7-3.6-1.7-4.8,0l-2.6,3.9c-4.1,6.2-12.2,8.1-18.6,4.5l-12.7-7.1c-3.4-1.9-7.5,1-6.8,4.8l5.5,31.3H159.1z"/>
		
			<linearGradient id="SVGID_4_" gradientUnits="userSpaceOnUse" x1="121.6418" y1="135.2392" x2="121.6418" y2="115.5658" gradientTransform="matrix(1 0 0 -1 0 243.2839)">
			<stop  offset="0" style="stop-color:#DC8758;stop-opacity:0"/>
			<stop  offset="0.2153" style="stop-color:#DD8654;stop-opacity:0.215"/>
			<stop  offset="0.4291" style="stop-color:#E28448;stop-opacity:0.429"/>
			<stop  offset="0.6424" style="stop-color:#EA8034;stop-opacity:0.642"/>
			<stop  offset="0.8543" style="stop-color:#F47B18;stop-opacity:0.854"/>
			<stop  offset="1" style="stop-color:#FE7701"/>
		</linearGradient>
		<path class="st4" d="M140.4,98.4c-1.4,0.2-2.8,0.2-4.2,0h-29.1c-1.4,0.2-2.8,0.2-4.2,0H79.3l4.8,27.3h74.9l4.8-27.3H140.4z"/>
		
			<linearGradient id="SVGID_5_" gradientUnits="userSpaceOnUse" x1="149.3015" y1="134.3067" x2="160.8733" y2="131.9921" gradientTransform="matrix(1 0 0 -1 0 243.2839)">
			<stop  offset="0" style="stop-color:#DC8758;stop-opacity:0"/>
			<stop  offset="0.2153" style="stop-color:#DD8654;stop-opacity:0.215"/>
			<stop  offset="0.4291" style="stop-color:#E28448;stop-opacity:0.429"/>
			<stop  offset="0.6424" style="stop-color:#EA8034;stop-opacity:0.642"/>
			<stop  offset="0.8543" style="stop-color:#F47B18;stop-opacity:0.854"/>
			<stop  offset="1" style="stop-color:#FE7701"/>
		</linearGradient>
		<path class="st5" d="M159.1,125.7l5.5-31.3c0.7-3.8-3.4-6.7-6.8-4.8l-12.7,7.1c-6.4,3.6-14.6,1.7-18.6-4.5l-2.6-3.9
			c-0.6-0.9-1.5-1.3-2.4-1.3v38.5L159.1,125.7L159.1,125.7z"/>
	</g>
	<g>
		<g>
			<g>
				
					<linearGradient id="SVGID_6_" gradientUnits="userSpaceOnUse" x1="125.6678" y1="135.3804" x2="116.4039" y2="144.6443" gradientTransform="matrix(1 0 0 -1 0 243.2839)">
					<stop  offset="0" style="stop-color:#FEF0AE"/>
					<stop  offset="1" style="stop-color:#FBC56D"/>
				</linearGradient>
				<circle class="st6" cx="121.6" cy="103.9" r="7.7"/>
				
					<linearGradient id="SVGID_7_" gradientUnits="userSpaceOnUse" x1="119.0373" y1="142.2374" x2="124.0501" y2="136.7886" gradientTransform="matrix(1 0 0 -1 0 243.2839)">
					<stop  offset="0" style="stop-color:#FD4755"/>
					<stop  offset="0.3362" style="stop-color:#E43F48"/>
					<stop  offset="1" style="stop-color:#A72B2B"/>
				</linearGradient>
				<circle class="st7" cx="121.6" cy="103.9" r="5.7"/>
				
					<linearGradient id="SVGID_8_" gradientUnits="userSpaceOnUse" x1="121.6419" y1="139.7144" x2="121.6419" y2="133.4422" gradientTransform="matrix(1 0 0 -1 0 243.2839)">
					<stop  offset="0" style="stop-color:#A72B2B;stop-opacity:0"/>
					<stop  offset="1" style="stop-color:#481F05"/>
				</linearGradient>
				<path class="st8" d="M115.9,103.9c0,3.2,2.6,5.7,5.7,5.7s5.7-2.6,5.7-5.7c0-0.7-0.1-1.3-0.3-1.9h-10.8
					C116,102.5,115.9,103.2,115.9,103.9L115.9,103.9z"/>
				
					<linearGradient id="SVGID_9_" gradientUnits="userSpaceOnUse" x1="122.5339" y1="138.7129" x2="126.118" y2="135.9278" gradientTransform="matrix(1 0 0 -1 0 243.2839)">
					<stop  offset="0" style="stop-color:#A72B2B;stop-opacity:0"/>
					<stop  offset="1" style="stop-color:#481F05"/>
				</linearGradient>
				<path class="st9" d="M117.6,107.9c2.2,2.2,5.9,2.2,8.1,0c2.2-2.2,2.2-5.9,0-8.1c-0.5-0.5-1-0.9-1.6-1.1l-7.6,7.6
					C116.7,106.9,117.1,107.4,117.6,107.9L117.6,107.9z"/>
			</g>
		</g>
	</g>
	<g>
		<g>
			<g>
				<g>
					
						<linearGradient id="SVGID_10_" gradientUnits="userSpaceOnUse" x1="94.9069" y1="131.0657" x2="88.3563" y2="137.6164" gradientTransform="matrix(1 0 0 -1 0 243.2839)">
						<stop  offset="0" style="stop-color:#FEF0AE"/>
						<stop  offset="1" style="stop-color:#FBC56D"/>
					</linearGradient>
					<circle class="st10" cx="92.1" cy="109.4" r="5.5"/>
					
						<linearGradient id="SVGID_11_" gradientUnits="userSpaceOnUse" x1="90.2185" y1="135.9144" x2="93.763" y2="132.0615" gradientTransform="matrix(1 0 0 -1 0 243.2839)">
						<stop  offset="0" style="stop-color:#BBEC6C"/>
						<stop  offset="1" style="stop-color:#81B823"/>
					</linearGradient>
					<circle class="st11" cx="92.1" cy="109.4" r="4"/>
					
						<linearGradient id="SVGID_12_" gradientUnits="userSpaceOnUse" x1="92.0603" y1="134.1305" x2="92.0603" y2="129.6953" gradientTransform="matrix(1 0 0 -1 0 243.2839)">
						<stop  offset="0" style="stop-color:#026841;stop-opacity:0"/>
						<stop  offset="0.2391" style="stop-color:#0A6644;stop-opacity:0.239"/>
						<stop  offset="0.6113" style="stop-color:#20604D;stop-opacity:0.611"/>
						<stop  offset="1" style="stop-color:#3E5959"/>
					</linearGradient>
					<path class="st12" d="M88,109.4c0,2.2,1.8,4,4,4s4-1.8,4-4c0-0.5-0.1-0.9-0.2-1.4h-7.6C88.1,108.4,88,108.9,88,109.4z"/>
					
						<linearGradient id="SVGID_13_" gradientUnits="userSpaceOnUse" x1="92.691" y1="133.4223" x2="95.2253" y2="131.4531" gradientTransform="matrix(1 0 0 -1 0 243.2839)">
						<stop  offset="0" style="stop-color:#026841;stop-opacity:0"/>
						<stop  offset="0.2391" style="stop-color:#0A6644;stop-opacity:0.239"/>
						<stop  offset="0.6113" style="stop-color:#20604D;stop-opacity:0.611"/>
						<stop  offset="1" style="stop-color:#3E5959"/>
					</linearGradient>
					<path class="st13" d="M89.2,112.2c1.6,1.6,4.1,1.6,5.7,0s1.6-4.1,0-5.7c-0.3-0.3-0.7-0.6-1.1-0.8l-5.4,5.4
						C88.6,111.5,88.9,111.9,89.2,112.2z"/>
				</g>
			</g>
		</g>
		<g>
			<g>
				<g>
					
						<linearGradient id="SVGID_14_" gradientUnits="userSpaceOnUse" x1="154.0704" y1="131.0658" x2="147.5199" y2="137.6165" gradientTransform="matrix(1 0 0 -1 0 243.2839)">
						<stop  offset="0" style="stop-color:#FEF0AE"/>
						<stop  offset="1" style="stop-color:#FBC56D"/>
					</linearGradient>
					<circle class="st14" cx="151.2" cy="109.4" r="5.5"/>
					
						<linearGradient id="SVGID_15_" gradientUnits="userSpaceOnUse" x1="149.382" y1="135.9144" x2="152.9266" y2="132.0616" gradientTransform="matrix(1 0 0 -1 0 243.2839)">
						<stop  offset="0" style="stop-color:#BBEC6C"/>
						<stop  offset="1" style="stop-color:#81B823"/>
					</linearGradient>
					<circle class="st15" cx="151.2" cy="109.4" r="4"/>
					
						<linearGradient id="SVGID_16_" gradientUnits="userSpaceOnUse" x1="151.2237" y1="134.1305" x2="151.2237" y2="129.6953" gradientTransform="matrix(1 0 0 -1 0 243.2839)">
						<stop  offset="0" style="stop-color:#026841;stop-opacity:0"/>
						<stop  offset="0.2391" style="stop-color:#0A6644;stop-opacity:0.239"/>
						<stop  offset="0.6113" style="stop-color:#20604D;stop-opacity:0.611"/>
						<stop  offset="1" style="stop-color:#3E5959"/>
					</linearGradient>
					<path class="st16" d="M147.2,109.4c0,2.2,1.8,4,4,4c2.2,0,4-1.8,4-4c0-0.5-0.1-0.9-0.2-1.4h-7.6
						C147.3,108.4,147.2,108.9,147.2,109.4z"/>
					
						<linearGradient id="SVGID_17_" gradientUnits="userSpaceOnUse" x1="151.8544" y1="133.4223" x2="154.3887" y2="131.4531" gradientTransform="matrix(1 0 0 -1 0 243.2839)">
						<stop  offset="0" style="stop-color:#026841;stop-opacity:0"/>
						<stop  offset="0.2391" style="stop-color:#0A6644;stop-opacity:0.239"/>
						<stop  offset="0.6113" style="stop-color:#20604D;stop-opacity:0.611"/>
						<stop  offset="1" style="stop-color:#3E5959"/>
					</linearGradient>
					<path class="st17" d="M148.4,112.2c1.6,1.6,4.1,1.6,5.7,0c1.6-1.6,1.6-4.1,0-5.7c-0.3-0.3-0.7-0.6-1.1-0.8l-5.4,5.4
						C147.8,111.5,148,111.9,148.4,112.2z"/>
				</g>
			</g>
		</g>
	</g>
	<g>
		
			<linearGradient id="SVGID_18_" gradientUnits="userSpaceOnUse" x1="103.7785" y1="116.987" x2="135.418" y2="116.987" gradientTransform="matrix(1 0 0 -1 0 243.2839)">
			<stop  offset="0" style="stop-color:#FEF0AE"/>
			<stop  offset="1" style="stop-color:#FBC56D"/>
		</linearGradient>
		<path class="st18" d="M127.5,112.8c-3.3-3-8.4-3-11.7,0c-1.4,1.2-3.1,2-5,2.2c-16.2,1.5-28,6.5-28,12.3v14.8h77.7v-14.8
			c0-5.8-11.8-10.7-28-12.3C130.6,114.8,128.9,114,127.5,112.8L127.5,112.8z"/>
		
			<linearGradient id="SVGID_19_" gradientUnits="userSpaceOnUse" x1="118.1966" y1="131.0287" x2="122.8252" y2="101.1344" gradientTransform="matrix(1 0 0 -1 0 243.2839)">
			<stop  offset="0" style="stop-color:#DC8758;stop-opacity:0"/>
			<stop  offset="0.2153" style="stop-color:#DD8654;stop-opacity:0.215"/>
			<stop  offset="0.4291" style="stop-color:#E28448;stop-opacity:0.429"/>
			<stop  offset="0.6424" style="stop-color:#EA8034;stop-opacity:0.642"/>
			<stop  offset="0.8543" style="stop-color:#F47B18;stop-opacity:0.854"/>
			<stop  offset="1" style="stop-color:#FE7701"/>
		</linearGradient>
		<path class="st19" d="M127.5,112.8c-3.3-3-8.4-3-11.7,0c-1.4,1.2-3.1,2-5,2.2c-16.2,1.5-28,6.5-28,12.3v14.8h77.7v-14.8
			c0-5.8-11.8-10.7-28-12.3C130.6,114.8,128.9,114,127.5,112.8L127.5,112.8z"/>
		
			<linearGradient id="SVGID_20_" gradientUnits="userSpaceOnUse" x1="123.049" y1="113.4015" x2="124.5919" y2="121.8875" gradientTransform="matrix(1 0 0 -1 0 243.2839)">
			<stop  offset="0" style="stop-color:#DC8758;stop-opacity:0"/>
			<stop  offset="0.2153" style="stop-color:#DD8654;stop-opacity:0.215"/>
			<stop  offset="0.4291" style="stop-color:#E28448;stop-opacity:0.429"/>
			<stop  offset="0.6424" style="stop-color:#EA8034;stop-opacity:0.642"/>
			<stop  offset="0.8543" style="stop-color:#F47B18;stop-opacity:0.854"/>
			<stop  offset="1" style="stop-color:#FE7701"/>
		</linearGradient>
		<path class="st20" d="M160.5,133.6v8.5H82.8v-8.5c0-7.1,17.4-12.8,38.8-12.8S160.5,126.5,160.5,133.6z"/>
		
			<linearGradient id="SVGID_21_" gradientUnits="userSpaceOnUse" x1="117.7852" y1="116.3887" x2="114.4421" y2="125.5176" gradientTransform="matrix(1 0 0 -1 0 243.2839)">
			<stop  offset="0" style="stop-color:#DC8758;stop-opacity:0"/>
			<stop  offset="0.2153" style="stop-color:#DD8654;stop-opacity:0.215"/>
			<stop  offset="0.4291" style="stop-color:#E28448;stop-opacity:0.429"/>
			<stop  offset="0.6424" style="stop-color:#EA8034;stop-opacity:0.642"/>
			<stop  offset="0.8543" style="stop-color:#F47B18;stop-opacity:0.854"/>
			<stop  offset="1" style="stop-color:#FE7701"/>
		</linearGradient>
		<path class="st21" d="M160.5,133.6v8.5H82.8v-8.5c0-7.1,17.4-12.8,38.8-12.8S160.5,126.5,160.5,133.6z"/>
		
			<linearGradient id="SVGID_22_" gradientUnits="userSpaceOnUse" x1="150.2594" y1="116.987" x2="158.442" y2="116.987" gradientTransform="matrix(1 0 0 -1 0 243.2839)">
			<stop  offset="0" style="stop-color:#DC8758;stop-opacity:0"/>
			<stop  offset="0.2153" style="stop-color:#DD8654;stop-opacity:0.215"/>
			<stop  offset="0.4291" style="stop-color:#E28448;stop-opacity:0.429"/>
			<stop  offset="0.6424" style="stop-color:#EA8034;stop-opacity:0.642"/>
			<stop  offset="0.8543" style="stop-color:#F47B18;stop-opacity:0.854"/>
			<stop  offset="1" style="stop-color:#FE7701"/>
		</linearGradient>
		<path class="st22" d="M160.5,142.1v-14.8c0-5.8-11.8-10.7-28-12.3c-1.9-0.2-3.6-1-5-2.2c-1.7-1.5-3.8-2.3-5.8-2.3v31.5
			L160.5,142.1z"/>
		
			<linearGradient id="SVGID_23_" gradientUnits="userSpaceOnUse" x1="125.584" y1="120.6432" x2="113.4335" y2="128.9364" gradientTransform="matrix(1 0 0 -1 0 243.2839)">
			<stop  offset="0" style="stop-color:#DC8758;stop-opacity:0"/>
			<stop  offset="0.2153" style="stop-color:#DD8654;stop-opacity:0.215"/>
			<stop  offset="0.4291" style="stop-color:#E28448;stop-opacity:0.429"/>
			<stop  offset="0.6424" style="stop-color:#EA8034;stop-opacity:0.642"/>
			<stop  offset="0.8543" style="stop-color:#F47B18;stop-opacity:0.854"/>
			<stop  offset="1" style="stop-color:#FE7701"/>
		</linearGradient>
		<path class="st23" d="M160.5,142.1v-14.8c0-5.8-11.8-10.7-28-12.3c-1.9-0.2-3.6-1-5-2.2c-1.7-1.5-3.8-2.3-5.8-2.3v31.5
			L160.5,142.1z"/>
	</g>
	<g>
		<g>
			
				<linearGradient id="SVGID_24_" gradientUnits="userSpaceOnUse" x1="-273.12" y1="-282.042" x2="-249.3154" y2="-282.042" gradientTransform="matrix(0 1 -1 0 -160.4001 403.684)">
				<stop  offset="0" style="stop-color:#FEF0AE"/>
				<stop  offset="1" style="stop-color:#FBC56D"/>
			</linearGradient>
			<ellipse class="st24" cx="121.6" cy="142.1" rx="38.8" ry="12.8"/>
			
				<linearGradient id="SVGID_25_" gradientUnits="userSpaceOnUse" x1="-258.5569" y1="-282.042" x2="-247.9025" y2="-282.042" gradientTransform="matrix(0 1 -1 0 -160.4001 403.684)">
				<stop  offset="0" style="stop-color:#DC8758;stop-opacity:0"/>
				<stop  offset="0.2153" style="stop-color:#DD8654;stop-opacity:0.215"/>
				<stop  offset="0.4291" style="stop-color:#E28448;stop-opacity:0.429"/>
				<stop  offset="0.6424" style="stop-color:#EA8034;stop-opacity:0.642"/>
				<stop  offset="0.8543" style="stop-color:#F47B18;stop-opacity:0.854"/>
				<stop  offset="1" style="stop-color:#FE7701"/>
			</linearGradient>
			<path class="st25" d="M82.8,142.1c0-2.5,2.3-4.9,6.1-6.9h65.4c3.9,2,6.1,4.4,6.1,6.9c0,7.1-17.4,12.8-38.8,12.8
				C100.2,154.9,82.8,149.1,82.8,142.1z"/>
			<g>
				
					<linearGradient id="SVGID_26_" gradientUnits="userSpaceOnUse" x1="-281.6201" y1="-277.3939" x2="-248.2792" y2="-284.7926" gradientTransform="matrix(0 1 -1 0 -160.4001 403.684)">
					<stop  offset="0" style="stop-color:#DC8758;stop-opacity:0"/>
					<stop  offset="0.2153" style="stop-color:#DD8654;stop-opacity:0.215"/>
					<stop  offset="0.4291" style="stop-color:#E28448;stop-opacity:0.429"/>
					<stop  offset="0.6424" style="stop-color:#EA8034;stop-opacity:0.642"/>
					<stop  offset="0.8543" style="stop-color:#F47B18;stop-opacity:0.854"/>
					<stop  offset="1" style="stop-color:#FE7701"/>
				</linearGradient>
				<ellipse class="st26" cx="121.6" cy="143" rx="29.6" ry="7.4"/>
				
					<linearGradient id="SVGID_27_" gradientUnits="userSpaceOnUse" x1="-257.6133" y1="-282.042" x2="-268.2017" y2="-282.042" gradientTransform="matrix(0 1 -1 0 -160.4001 403.684)">
					<stop  offset="0" style="stop-color:#DC8758;stop-opacity:0"/>
					<stop  offset="0.2153" style="stop-color:#DD8654;stop-opacity:0.215"/>
					<stop  offset="0.4291" style="stop-color:#E28448;stop-opacity:0.429"/>
					<stop  offset="0.6424" style="stop-color:#EA8034;stop-opacity:0.642"/>
					<stop  offset="0.8543" style="stop-color:#F47B18;stop-opacity:0.854"/>
					<stop  offset="1" style="stop-color:#FE7701"/>
				</linearGradient>
				<ellipse class="st27" cx="121.6" cy="143" rx="29.6" ry="7.4"/>
			</g>
			
				<linearGradient id="SVGID_28_" gradientUnits="userSpaceOnUse" x1="-258.6426" y1="-299.8159" x2="-248.1009" y2="-314.1366" gradientTransform="matrix(0 1 -1 0 -160.4001 403.684)">
				<stop  offset="0" style="stop-color:#DC8758;stop-opacity:0"/>
				<stop  offset="0.2153" style="stop-color:#DD8654;stop-opacity:0.215"/>
				<stop  offset="0.4291" style="stop-color:#E28448;stop-opacity:0.429"/>
				<stop  offset="0.6424" style="stop-color:#EA8034;stop-opacity:0.642"/>
				<stop  offset="0.8543" style="stop-color:#F47B18;stop-opacity:0.854"/>
				<stop  offset="1" style="stop-color:#FE7701"/>
			</linearGradient>
			<path class="st28" d="M123.9,129.3c20.4,0.4,36.6,6,36.6,12.8c0,6.8-16.2,12.4-36.6,12.8V129.3z"/>
		</g>
	</g>
	
		<linearGradient id="SVGID_29_" gradientUnits="userSpaceOnUse" x1="115.9291" y1="115.2601" x2="133.2031" y2="115.2601" gradientTransform="matrix(1 0 0 -1 0 243.2839)">
		<stop  offset="0" style="stop-color:#FD4755"/>
		<stop  offset="0.3362" style="stop-color:#E43F48"/>
		<stop  offset="1" style="stop-color:#A72B2B"/>
	</linearGradient>
	<path class="st29" d="M160.5,136.3v-0.7c0-7.1-17.4-12.8-38.8-12.8s-38.8,5.7-38.8,12.8v0.7c-0.5-0.9-0.7-1.7-0.7-2.6
		c0-0.9,0.2-1.8,0.7-2.6c3.5-6.4,19.6-11.3,38.8-11.3s35.3,4.9,38.8,11.3c0.5,0.9,0.7,1.7,0.7,2.6
		C161.2,134.6,160.9,135.5,160.5,136.3z"/>
	
		<linearGradient id="SVGID_30_" gradientUnits="userSpaceOnUse" x1="121.6419" y1="121.9314" x2="121.6419" y2="111.0023" gradientTransform="matrix(1 0 0 -1 0 243.2839)">
		<stop  offset="0" style="stop-color:#A72B2B;stop-opacity:0"/>
		<stop  offset="1" style="stop-color:#481F05"/>
	</linearGradient>
	<path class="st30" d="M160.5,136.3v-0.7c0-7.1-17.4-12.8-38.8-12.8s-38.8,5.7-38.8,12.8v0.7c-0.5-0.9-0.7-1.7-0.7-2.6
		c0-0.9,0.2-1.8,0.7-2.6c3.5-6.4,19.6-11.3,38.8-11.3s35.3,4.9,38.8,11.3c0.5,0.9,0.7,1.7,0.7,2.6
		C161.2,134.6,160.9,135.5,160.5,136.3z"/>
</g>
</svg>
