<svg width="246" height="246" viewBox="0 0 246 246" fill="none" xmlns="http://www.w3.org/2000/svg">
<path d="M238.219 106.078L216.437 84.297V53.4845C216.437 40.2709 205.724 29.5626 192.51 29.5626H161.703L139.917 7.77612C130.573 -1.56763 115.422 -1.56763 106.078 7.77612L84.2967 29.5626H53.4842C40.2707 29.5626 29.5623 40.2709 29.5623 53.4845V84.297L7.77588 106.078C-1.56787 115.422 -1.56787 130.573 7.77588 139.917L29.5623 161.703V192.511C29.5623 205.724 40.2707 216.438 53.4842 216.438H84.2967L106.078 238.219C115.422 247.563 130.573 247.563 139.917 238.219L161.703 216.438H192.51C205.724 216.438 216.437 205.724 216.437 192.511V161.703L238.219 139.917C247.562 130.573 247.562 115.422 238.219 106.078Z" fill="#E6F2D8"/>
<path d="M231.094 109.531L208.953 87.3958V56.0885C208.953 45.5729 200.432 37.0417 189.911 37.0417H158.604L136.464 14.9063C129.031 7.46875 116.974 7.46875 109.531 14.9063L87.3958 37.0417H56.0885C45.5729 37.0417 37.0417 45.5677 37.0417 56.0885V87.3958L14.9063 109.531C7.46875 116.969 7.46875 129.026 14.9063 136.464L37.0417 158.604V189.911C37.0417 200.427 45.5677 208.953 56.0885 208.953H87.3958L109.531 231.094C116.969 238.526 129.026 238.526 136.464 231.094L158.604 208.953H189.911C200.427 208.953 208.953 200.432 208.953 189.911V158.604L231.094 136.464C238.526 129.031 238.526 116.974 231.094 109.531Z" fill="#E6F2D8"/>
<path d="M223.557 110.375L203.026 89.849V60.8125C203.026 50.9531 195.036 42.9635 185.177 42.9635H156.146L135.615 22.4375C128.646 15.4687 117.344 15.4687 110.375 22.4375L89.849 42.9635H60.8125C50.9583 42.9635 42.9635 50.9531 42.9635 60.8125V89.849L22.4375 110.375C15.4687 117.344 15.4687 128.646 22.4375 135.615L42.9635 156.146V185.177C42.9635 195.036 50.9583 203.026 60.8125 203.026H89.849L110.375 223.557C117.344 230.521 128.646 230.521 135.615 223.557L156.146 203.026H185.177C195.036 203.026 203.026 195.036 203.026 185.177V156.146L223.557 135.615C230.521 128.646 230.521 117.344 223.557 110.375Z" fill="#5DB884"/>
<mask id="mask0_601_93" style="mask-type:luminance" maskUnits="userSpaceOnUse" x="71" y="80" width="103" height="86">
<path d="M71.9531 80.677H173.953V165.667H71.9531V80.677Z" fill="white"/>
</mask>
<g mask="url(#mask0_601_93)">
<path d="M147.245 106.094C147.51 106.99 147.771 107.729 147.932 108.469C147.984 108.838 147.88 109.26 147.823 109.63C147.401 109.526 146.979 109.526 146.661 109.312C145.922 108.786 145.234 108.203 144.547 107.573C144.286 107.307 144.073 107.255 143.703 107.411C136.781 110.583 129.969 113.963 123.682 118.245C123.469 118.401 123.255 118.505 123.099 118.771C140.057 119.141 156.964 119.245 174.031 118.667C173.927 118.932 173.875 119.141 173.766 119.302C172.552 121.838 171.339 124.37 170.12 126.854C169.964 127.172 169.594 127.437 169.276 127.542C159.448 131.083 149.568 134.568 139.74 138.109C137.151 139.062 134.563 140.01 132.026 141.068C131.026 141.49 130.125 142.177 129.229 142.812C128.438 143.391 128.224 144.187 128.438 145.135C128.859 147.036 130.177 148.094 131.87 148.677C133.823 149.312 135.781 149.786 137.786 150.208C140.109 150.734 142.438 151.213 144.76 151.687C144.76 151.792 144.813 151.844 144.76 151.901C144.073 153.641 143.333 155.385 142.594 157.13C142.328 157.818 141.802 158.135 141.063 158.24C136.042 158.979 131.234 158.292 126.641 156.125C123.151 154.49 119.927 152.531 117.604 149.417C115.172 146.088 113.219 142.495 112.161 138.531C111.052 134.568 110.047 130.552 109.047 126.536C108.99 126.328 108.938 126.115 108.833 125.745C108.516 127.068 108.307 128.281 107.99 129.495C106.719 134.359 104.552 138.849 101.807 143.021C97.3698 149.838 92.0834 155.969 85.9011 161.302C84.6354 162.359 83.2084 163.312 81.7292 164.104C79.4063 165.318 77.3959 164.896 75.4948 163.047C74.0157 161.62 73.224 159.771 72.8021 157.818C72.1146 154.75 71.9532 151.635 72.0625 148.516C72.2709 142.391 73.1198 136.312 74.6511 130.344C74.8073 129.656 75.0729 128.969 75.3907 128.333C75.5469 127.963 75.8646 127.646 76.1302 127.333C76.2344 127.333 76.3386 127.385 76.4479 127.385C76.4479 127.703 76.5 128.073 76.4479 128.385C76.0782 130.396 75.599 132.401 75.2292 134.463C74.4375 138.797 73.8594 143.13 74.3334 147.516C74.5417 149.417 74.7552 151.37 75.599 153.115C76.6563 155.385 78.349 156.125 80.724 155.385C82.6823 154.75 84.3177 153.641 85.849 152.375C89.3386 149.573 92.349 146.193 95.2032 142.76C98.6354 138.583 101.964 134.307 104.766 129.656C106.615 126.698 107.089 123.63 106.141 120.25C104.714 115.021 102.813 109.948 100.646 104.984C98.5313 99.9635 96.2604 95.0468 94.0417 90.0833C93.8282 89.552 93.7761 89.1301 93.9323 88.552C94.6198 86.0155 95.2032 83.427 95.9427 80.677C96.1511 81.0468 96.2604 81.2603 96.4167 81.4687C102.125 92.4583 106.563 103.927 110.047 115.76C112.005 122.417 114.224 128.969 116.391 135.573C117.391 138.635 118.766 141.594 121.302 143.708C122.359 144.609 123.521 145.349 124.682 145.979C125.37 146.406 125.474 146.245 125.688 145.453C126.375 142.865 127.063 140.328 127.75 137.74C127.854 137.37 128.12 137.052 128.38 136.786C130.599 134.677 133.188 133.141 136.042 132.141C141.536 130.13 147.083 128.333 152.578 126.484C152.896 126.38 153.161 126.276 153.583 126.167C140.167 126.219 126.849 126.328 113.484 126.38C113.536 126.115 113.589 125.958 113.641 125.745C114.698 122.63 115.807 119.562 116.865 116.448C116.969 116.078 117.234 115.76 117.5 115.495C122.781 111.057 128.646 107.463 134.776 104.187C136.411 103.344 138.052 102.5 139.688 101.651C139.901 101.547 140.109 101.443 140.427 101.281C138.948 99.802 138.313 98.0624 137.943 96.1041C137.203 91.7708 138.104 87.9687 141.536 84.9062C142.594 83.953 143.755 83.6353 145.078 83.901C147.193 84.2708 148.99 85.3801 150.781 86.5937C154.271 88.9739 157.333 91.8801 160.401 94.8385C160.557 94.9947 160.661 95.3124 160.661 95.4739C160.292 97.5833 159.87 99.6458 158.922 101.599C158.552 102.391 157.969 102.818 157.073 103.078C153.635 104.083 150.469 105.088 147.245 106.094ZM153.318 96.8437C151.26 95.4166 149.25 94.203 146.979 93.4635C145.026 92.828 143.125 93.0937 141.219 93.6249C140.427 93.8333 140.427 94.0989 140.906 94.7343C142.172 96.3176 143.438 97.901 144.708 99.5416C144.974 99.9114 145.234 99.9114 145.604 99.7499C147.932 98.9062 150.307 98.0624 152.635 97.2135C152.792 97.1093 153.005 97.0051 153.318 96.8437Z" fill="#F1F8E9"/>
</g>
</svg>
