<svg width="242" height="242" viewBox="0 0 242 242" fill="none" xmlns="http://www.w3.org/2000/svg">
<path d="M234.4 103.9L212.9 82.4V52C212.9 39 202.3 28.4 189.3 28.4H158.9L137.3 6.9C128.1 -2.3 113.1 -2.3 103.9 6.9L82.4 28.4H52C39 28.4 28.4 39 28.4 52V82.4L6.9 103.9C-2.3 113.1 -2.3 128.1 6.9 137.3L28.4 158.8V189.2C28.4 202.2 39 212.8 52 212.8H82.4L103.9 234.3C113.1 243.5 128.1 243.5 137.3 234.3L158.8 212.8H189.2C202.2 212.8 212.8 202.2 212.8 189.2V158.8L234.3 137.3C243.6 128.1 243.6 113.2 234.4 103.9ZM227.3 133.9L205.5 155.7V186.6C205.5 197 197.1 205.4 186.7 205.4H155.8L134 227.2C126.7 234.5 114.8 234.5 107.4 227.2L85.6 205.4H54.6C44.2 205.4 35.8 197 35.8 186.6V155.7L14 133.9C6.7 126.6 6.7 114.7 14 107.3L35.8 85.5V54.6C35.8 44.2 44.2 35.8 54.6 35.8H85.5L107.4 14C114.7 6.7 126.6 6.7 134 14L155.8 35.8H186.7C197.1 35.8 205.5 44.2 205.5 54.6V85.5L227.3 107.3C234.7 114.7 234.7 126.6 227.3 133.9Z" fill="#EEBA2B"/>
<path d="M156 122L142.4 93.1C141.3 90.7 138.3 90 136.2 91.6L131.8 94.9C130.9 95.6 126.3 99.3 121.7 99.3C117.1 99.3 112.5 95.6 111.6 94.9L107.2 91.6C105.1 90 102.1 90.8 101 93.1L87.3003 122H156Z" fill="url(#paint0_linear_601_57)"/>
<path d="M156 122L142.4 93.1C141.3 90.7 138.3 90 136.2 91.6L131.8 94.9C130.9 95.6 126.3 99.3 121.7 99.3C117.1 99.3 112.5 95.6 111.6 94.9L107.2 91.6C105.1 90 102.1 90.8 101 93.1L87.3003 122H156Z" fill="url(#paint1_linear_601_57)"/>
<path d="M159.1 125.7L164.6 94.3999C165.3 90.5999 161.2 87.6999 157.8 89.5999L145.1 96.6999C138.7 100.3 130.5 98.3999 126.5 92.1999L123.9 88.2999C122.8 86.5999 120.3 86.5999 119.1 88.2999L116.5 92.1999C112.4 98.3999 104.3 100.3 97.9001 96.6999L85.2001 89.5999C81.8001 87.6999 77.7001 90.5999 78.4001 94.3999L83.9001 125.7H159.1Z" fill="url(#paint2_linear_601_57)"/>
<path d="M140.4 98.3999C139 98.5999 137.6 98.5999 136.2 98.3999H107.1C105.7 98.5999 104.3 98.5999 102.9 98.3999H79.3003L84.1003 125.7H159L163.8 98.3999H140.4Z" fill="url(#paint3_linear_601_57)"/>
<path d="M159.1 125.7L164.6 94.4C165.3 90.6 161.2 87.7 157.8 89.6L145.1 96.7C138.7 100.3 130.5 98.4 126.5 92.2L123.9 88.3C123.3 87.4 122.4 87 121.5 87V125.5L159.1 125.7Z" fill="url(#paint4_linear_601_57)"/>
<path d="M121.6 111.6C125.852 111.6 129.3 108.153 129.3 103.9C129.3 99.6474 125.852 96.2 121.6 96.2C117.347 96.2 113.9 99.6474 113.9 103.9C113.9 108.153 117.347 111.6 121.6 111.6Z" fill="url(#paint5_linear_601_57)"/>
<path d="M121.6 109.6C124.748 109.6 127.3 107.048 127.3 103.9C127.3 100.752 124.748 98.2 121.6 98.2C118.452 98.2 115.9 100.752 115.9 103.9C115.9 107.048 118.452 109.6 121.6 109.6Z" fill="url(#paint6_linear_601_57)"/>
<path d="M115.9 103.9C115.9 107.1 118.5 109.6 121.6 109.6C124.7 109.6 127.3 107 127.3 103.9C127.3 103.2 127.2 102.6 127 102H116.2C116 102.5 115.9 103.2 115.9 103.9Z" fill="url(#paint7_linear_601_57)"/>
<path d="M117.6 107.9C119.8 110.1 123.5 110.1 125.7 107.9C127.9 105.7 127.9 102 125.7 99.8C125.2 99.3 124.7 98.9 124.1 98.7L116.5 106.3C116.7 106.9 117.1 107.4 117.6 107.9Z" fill="url(#paint8_linear_601_57)"/>
<path d="M92.1001 114.9C95.1377 114.9 97.6001 112.437 97.6001 109.4C97.6001 106.362 95.1377 103.9 92.1001 103.9C89.0625 103.9 86.6001 106.362 86.6001 109.4C86.6001 112.437 89.0625 114.9 92.1001 114.9Z" fill="url(#paint9_linear_601_57)"/>
<path d="M92.1001 113.4C94.3092 113.4 96.1001 111.609 96.1001 109.4C96.1001 107.191 94.3092 105.4 92.1001 105.4C89.891 105.4 88.1001 107.191 88.1001 109.4C88.1001 111.609 89.891 113.4 92.1001 113.4Z" fill="url(#paint10_linear_601_57)"/>
<path d="M88 109.4C88 111.6 89.8 113.4 92 113.4C94.2 113.4 96 111.6 96 109.4C96 108.9 95.9 108.5 95.8 108H88.2C88.1 108.4 88 108.9 88 109.4Z" fill="url(#paint11_linear_601_57)"/>
<path d="M89.1999 112.2C90.7999 113.8 93.2999 113.8 94.8999 112.2C96.4999 110.6 96.4999 108.1 94.8999 106.5C94.5999 106.2 94.1999 105.9 93.7999 105.7L88.3999 111.1C88.5999 111.5 88.8999 111.9 89.1999 112.2Z" fill="url(#paint12_linear_601_57)"/>
<path d="M151.2 114.9C154.238 114.9 156.7 112.437 156.7 109.4C156.7 106.362 154.238 103.9 151.2 103.9C148.163 103.9 145.7 106.362 145.7 109.4C145.7 112.437 148.163 114.9 151.2 114.9Z" fill="url(#paint13_linear_601_57)"/>
<path d="M151.2 113.4C153.409 113.4 155.2 111.609 155.2 109.4C155.2 107.191 153.409 105.4 151.2 105.4C148.991 105.4 147.2 107.191 147.2 109.4C147.2 111.609 148.991 113.4 151.2 113.4Z" fill="url(#paint14_linear_601_57)"/>
<path d="M147.2 109.4C147.2 111.6 149 113.4 151.2 113.4C153.4 113.4 155.2 111.6 155.2 109.4C155.2 108.9 155.1 108.5 155 108H147.4C147.3 108.4 147.2 108.9 147.2 109.4Z" fill="url(#paint15_linear_601_57)"/>
<path d="M148.4 112.2C150 113.8 152.5 113.8 154.1 112.2C155.7 110.6 155.7 108.1 154.1 106.5C153.8 106.2 153.4 105.9 153 105.7L147.6 111.1C147.8 111.5 148 111.9 148.4 112.2Z" fill="url(#paint16_linear_601_57)"/>
<path d="M127.5 112.8C124.2 109.8 119.1 109.8 115.8 112.8C114.4 114 112.7 114.8 110.8 115C94.6003 116.5 82.8003 121.5 82.8003 127.3V142.1H160.5V127.3C160.5 121.5 148.7 116.6 132.5 115C130.6 114.8 128.9 114 127.5 112.8Z" fill="url(#paint17_linear_601_57)"/>
<path d="M127.5 112.8C124.2 109.8 119.1 109.8 115.8 112.8C114.4 114 112.7 114.8 110.8 115C94.6003 116.5 82.8003 121.5 82.8003 127.3V142.1H160.5V127.3C160.5 121.5 148.7 116.6 132.5 115C130.6 114.8 128.9 114 127.5 112.8Z" fill="url(#paint18_linear_601_57)"/>
<path d="M160.5 133.6V142.1H82.8003V133.6C82.8003 126.5 100.2 120.8 121.6 120.8C143 120.8 160.5 126.5 160.5 133.6Z" fill="url(#paint19_linear_601_57)"/>
<path d="M160.5 133.6V142.1H82.8003V133.6C82.8003 126.5 100.2 120.8 121.6 120.8C143 120.8 160.5 126.5 160.5 133.6Z" fill="url(#paint20_linear_601_57)"/>
<path d="M160.5 142.1V127.3C160.5 121.5 148.7 116.6 132.5 115C130.6 114.8 128.9 114 127.5 112.8C125.8 111.3 123.7 110.5 121.7 110.5V142L160.5 142.1Z" fill="url(#paint21_linear_601_57)"/>
<path d="M160.5 142.1V127.3C160.5 121.5 148.7 116.6 132.5 115C130.6 114.8 128.9 114 127.5 112.8C125.8 111.3 123.7 110.5 121.7 110.5V142L160.5 142.1Z" fill="url(#paint22_linear_601_57)"/>
<path d="M121.6 154.9C143.029 154.9 160.4 149.169 160.4 142.1C160.4 135.031 143.029 129.3 121.6 129.3C100.172 129.3 82.8003 135.031 82.8003 142.1C82.8003 149.169 100.172 154.9 121.6 154.9Z" fill="url(#paint23_linear_601_57)"/>
<path d="M82.8003 142.1C82.8003 139.6 85.1003 137.2 88.9003 135.2H154.3C158.2 137.2 160.4 139.6 160.4 142.1C160.4 149.2 143 154.9 121.6 154.9C100.2 154.9 82.8003 149.1 82.8003 142.1Z" fill="url(#paint24_linear_601_57)"/>
<path d="M121.6 150.4C137.948 150.4 151.2 147.087 151.2 143C151.2 138.913 137.948 135.6 121.6 135.6C105.253 135.6 92.0005 138.913 92.0005 143C92.0005 147.087 105.253 150.4 121.6 150.4Z" fill="url(#paint25_linear_601_57)"/>
<path d="M121.6 150.4C137.948 150.4 151.2 147.087 151.2 143C151.2 138.913 137.948 135.6 121.6 135.6C105.253 135.6 92.0005 138.913 92.0005 143C92.0005 147.087 105.253 150.4 121.6 150.4Z" fill="url(#paint26_linear_601_57)"/>
<path d="M123.9 129.3C144.3 129.7 160.5 135.3 160.5 142.1C160.5 148.9 144.3 154.5 123.9 154.9V129.3Z" fill="url(#paint27_linear_601_57)"/>
<path d="M160.5 136.3V135.6C160.5 128.5 143.1 122.8 121.7 122.8C100.3 122.8 82.9002 128.5 82.9002 135.6V136.3C82.4002 135.4 82.2002 134.6 82.2002 133.7C82.2002 132.8 82.4002 131.9 82.9002 131.1C86.4002 124.7 102.5 119.8 121.7 119.8C140.9 119.8 157 124.7 160.5 131.1C161 132 161.2 132.8 161.2 133.7C161.2 134.6 160.9 135.5 160.5 136.3Z" fill="url(#paint28_linear_601_57)"/>
<path d="M160.5 136.3V135.6C160.5 128.5 143.1 122.8 121.7 122.8C100.3 122.8 82.9002 128.5 82.9002 135.6V136.3C82.4002 135.4 82.2002 134.6 82.2002 133.7C82.2002 132.8 82.4002 131.9 82.9002 131.1C86.4002 124.7 102.5 119.8 121.7 119.8C140.9 119.8 157 124.7 160.5 131.1C161 132 161.2 132.8 161.2 133.7C161.2 134.6 160.9 135.5 160.5 136.3Z" fill="url(#paint29_linear_601_57)"/>
<defs>
<linearGradient id="paint0_linear_601_57" x1="97.8645" y1="98.707" x2="128.867" y2="113.912" gradientUnits="userSpaceOnUse">
<stop stop-color="#FEF0AE"/>
<stop offset="1" stop-color="#FBC56D"/>
</linearGradient>
<linearGradient id="paint1_linear_601_57" x1="121.642" y1="79.4513" x2="121.642" y2="100.022" gradientUnits="userSpaceOnUse">
<stop stop-color="#DC8758" stop-opacity="0"/>
<stop offset="0.2153" stop-color="#DD8654" stop-opacity="0.215"/>
<stop offset="0.4291" stop-color="#E28448" stop-opacity="0.429"/>
<stop offset="0.6424" stop-color="#EA8034" stop-opacity="0.642"/>
<stop offset="0.8543" stop-color="#F47B18" stop-opacity="0.854"/>
<stop offset="1" stop-color="#FE7701"/>
</linearGradient>
<linearGradient id="paint2_linear_601_57" x1="110.336" y1="106.405" x2="127.554" y2="106.405" gradientUnits="userSpaceOnUse">
<stop stop-color="#FEF0AE"/>
<stop offset="1" stop-color="#FBC56D"/>
</linearGradient>
<linearGradient id="paint3_linear_601_57" x1="121.642" y1="108.045" x2="121.642" y2="127.718" gradientUnits="userSpaceOnUse">
<stop stop-color="#DC8758" stop-opacity="0"/>
<stop offset="0.2153" stop-color="#DD8654" stop-opacity="0.215"/>
<stop offset="0.4291" stop-color="#E28448" stop-opacity="0.429"/>
<stop offset="0.6424" stop-color="#EA8034" stop-opacity="0.642"/>
<stop offset="0.8543" stop-color="#F47B18" stop-opacity="0.854"/>
<stop offset="1" stop-color="#FE7701"/>
</linearGradient>
<linearGradient id="paint4_linear_601_57" x1="149.302" y1="108.977" x2="160.873" y2="111.292" gradientUnits="userSpaceOnUse">
<stop stop-color="#DC8758" stop-opacity="0"/>
<stop offset="0.2153" stop-color="#DD8654" stop-opacity="0.215"/>
<stop offset="0.4291" stop-color="#E28448" stop-opacity="0.429"/>
<stop offset="0.6424" stop-color="#EA8034" stop-opacity="0.642"/>
<stop offset="0.8543" stop-color="#F47B18" stop-opacity="0.854"/>
<stop offset="1" stop-color="#FE7701"/>
</linearGradient>
<linearGradient id="paint5_linear_601_57" x1="125.668" y1="107.903" x2="116.404" y2="98.6396" gradientUnits="userSpaceOnUse">
<stop stop-color="#FEF0AE"/>
<stop offset="1" stop-color="#FBC56D"/>
</linearGradient>
<linearGradient id="paint6_linear_601_57" x1="119.037" y1="101.046" x2="124.05" y2="106.495" gradientUnits="userSpaceOnUse">
<stop stop-color="#FD4755"/>
<stop offset="0.3362" stop-color="#E43F48"/>
<stop offset="1" stop-color="#A72B2B"/>
</linearGradient>
<linearGradient id="paint7_linear_601_57" x1="121.642" y1="103.569" x2="121.642" y2="109.842" gradientUnits="userSpaceOnUse">
<stop stop-color="#A72B2B" stop-opacity="0"/>
<stop offset="1" stop-color="#481F05"/>
</linearGradient>
<linearGradient id="paint8_linear_601_57" x1="122.534" y1="104.571" x2="126.118" y2="107.356" gradientUnits="userSpaceOnUse">
<stop stop-color="#A72B2B" stop-opacity="0"/>
<stop offset="1" stop-color="#481F05"/>
</linearGradient>
<linearGradient id="paint9_linear_601_57" x1="94.907" y1="112.218" x2="88.3564" y2="105.667" gradientUnits="userSpaceOnUse">
<stop stop-color="#FEF0AE"/>
<stop offset="1" stop-color="#FBC56D"/>
</linearGradient>
<linearGradient id="paint10_linear_601_57" x1="90.2186" y1="107.369" x2="93.7631" y2="111.222" gradientUnits="userSpaceOnUse">
<stop stop-color="#BBEC6C"/>
<stop offset="1" stop-color="#81B823"/>
</linearGradient>
<linearGradient id="paint11_linear_601_57" x1="92.0603" y1="109.153" x2="92.0603" y2="113.589" gradientUnits="userSpaceOnUse">
<stop stop-color="#026841" stop-opacity="0"/>
<stop offset="0.2391" stop-color="#0A6644" stop-opacity="0.239"/>
<stop offset="0.6113" stop-color="#20604D" stop-opacity="0.611"/>
<stop offset="1" stop-color="#3E5959"/>
</linearGradient>
<linearGradient id="paint12_linear_601_57" x1="92.6909" y1="109.862" x2="95.2252" y2="111.831" gradientUnits="userSpaceOnUse">
<stop stop-color="#026841" stop-opacity="0"/>
<stop offset="0.2391" stop-color="#0A6644" stop-opacity="0.239"/>
<stop offset="0.6113" stop-color="#20604D" stop-opacity="0.611"/>
<stop offset="1" stop-color="#3E5959"/>
</linearGradient>
<linearGradient id="paint13_linear_601_57" x1="154.071" y1="112.218" x2="147.52" y2="105.667" gradientUnits="userSpaceOnUse">
<stop stop-color="#FEF0AE"/>
<stop offset="1" stop-color="#FBC56D"/>
</linearGradient>
<linearGradient id="paint14_linear_601_57" x1="149.382" y1="107.369" x2="152.927" y2="111.222" gradientUnits="userSpaceOnUse">
<stop stop-color="#BBEC6C"/>
<stop offset="1" stop-color="#81B823"/>
</linearGradient>
<linearGradient id="paint15_linear_601_57" x1="151.224" y1="109.153" x2="151.224" y2="113.589" gradientUnits="userSpaceOnUse">
<stop stop-color="#026841" stop-opacity="0"/>
<stop offset="0.2391" stop-color="#0A6644" stop-opacity="0.239"/>
<stop offset="0.6113" stop-color="#20604D" stop-opacity="0.611"/>
<stop offset="1" stop-color="#3E5959"/>
</linearGradient>
<linearGradient id="paint16_linear_601_57" x1="151.854" y1="109.862" x2="154.389" y2="111.831" gradientUnits="userSpaceOnUse">
<stop stop-color="#026841" stop-opacity="0"/>
<stop offset="0.2391" stop-color="#0A6644" stop-opacity="0.239"/>
<stop offset="0.6113" stop-color="#20604D" stop-opacity="0.611"/>
<stop offset="1" stop-color="#3E5959"/>
</linearGradient>
<linearGradient id="paint17_linear_601_57" x1="103.779" y1="126.297" x2="135.418" y2="126.297" gradientUnits="userSpaceOnUse">
<stop stop-color="#FEF0AE"/>
<stop offset="1" stop-color="#FBC56D"/>
</linearGradient>
<linearGradient id="paint18_linear_601_57" x1="118.197" y1="112.255" x2="122.825" y2="142.15" gradientUnits="userSpaceOnUse">
<stop stop-color="#DC8758" stop-opacity="0"/>
<stop offset="0.2153" stop-color="#DD8654" stop-opacity="0.215"/>
<stop offset="0.4291" stop-color="#E28448" stop-opacity="0.429"/>
<stop offset="0.6424" stop-color="#EA8034" stop-opacity="0.642"/>
<stop offset="0.8543" stop-color="#F47B18" stop-opacity="0.854"/>
<stop offset="1" stop-color="#FE7701"/>
</linearGradient>
<linearGradient id="paint19_linear_601_57" x1="123.049" y1="129.882" x2="124.592" y2="121.396" gradientUnits="userSpaceOnUse">
<stop stop-color="#DC8758" stop-opacity="0"/>
<stop offset="0.2153" stop-color="#DD8654" stop-opacity="0.215"/>
<stop offset="0.4291" stop-color="#E28448" stop-opacity="0.429"/>
<stop offset="0.6424" stop-color="#EA8034" stop-opacity="0.642"/>
<stop offset="0.8543" stop-color="#F47B18" stop-opacity="0.854"/>
<stop offset="1" stop-color="#FE7701"/>
</linearGradient>
<linearGradient id="paint20_linear_601_57" x1="117.785" y1="126.895" x2="114.442" y2="117.766" gradientUnits="userSpaceOnUse">
<stop stop-color="#DC8758" stop-opacity="0"/>
<stop offset="0.2153" stop-color="#DD8654" stop-opacity="0.215"/>
<stop offset="0.4291" stop-color="#E28448" stop-opacity="0.429"/>
<stop offset="0.6424" stop-color="#EA8034" stop-opacity="0.642"/>
<stop offset="0.8543" stop-color="#F47B18" stop-opacity="0.854"/>
<stop offset="1" stop-color="#FE7701"/>
</linearGradient>
<linearGradient id="paint21_linear_601_57" x1="150.26" y1="126.297" x2="158.442" y2="126.297" gradientUnits="userSpaceOnUse">
<stop stop-color="#DC8758" stop-opacity="0"/>
<stop offset="0.2153" stop-color="#DD8654" stop-opacity="0.215"/>
<stop offset="0.4291" stop-color="#E28448" stop-opacity="0.429"/>
<stop offset="0.6424" stop-color="#EA8034" stop-opacity="0.642"/>
<stop offset="0.8543" stop-color="#F47B18" stop-opacity="0.854"/>
<stop offset="1" stop-color="#FE7701"/>
</linearGradient>
<linearGradient id="paint22_linear_601_57" x1="125.584" y1="122.641" x2="113.434" y2="114.348" gradientUnits="userSpaceOnUse">
<stop stop-color="#DC8758" stop-opacity="0"/>
<stop offset="0.2153" stop-color="#DD8654" stop-opacity="0.215"/>
<stop offset="0.4291" stop-color="#E28448" stop-opacity="0.429"/>
<stop offset="0.6424" stop-color="#EA8034" stop-opacity="0.642"/>
<stop offset="0.8543" stop-color="#F47B18" stop-opacity="0.854"/>
<stop offset="1" stop-color="#FE7701"/>
</linearGradient>
<linearGradient id="paint23_linear_601_57" x1="121.642" y1="130.564" x2="121.642" y2="154.369" gradientUnits="userSpaceOnUse">
<stop stop-color="#FEF0AE"/>
<stop offset="1" stop-color="#FBC56D"/>
</linearGradient>
<linearGradient id="paint24_linear_601_57" x1="121.642" y1="145.127" x2="121.642" y2="155.781" gradientUnits="userSpaceOnUse">
<stop stop-color="#DC8758" stop-opacity="0"/>
<stop offset="0.2153" stop-color="#DD8654" stop-opacity="0.215"/>
<stop offset="0.4291" stop-color="#E28448" stop-opacity="0.429"/>
<stop offset="0.6424" stop-color="#EA8034" stop-opacity="0.642"/>
<stop offset="0.8543" stop-color="#F47B18" stop-opacity="0.854"/>
<stop offset="1" stop-color="#FE7701"/>
</linearGradient>
<linearGradient id="paint25_linear_601_57" x1="116.994" y1="122.064" x2="124.393" y2="155.405" gradientUnits="userSpaceOnUse">
<stop stop-color="#DC8758" stop-opacity="0"/>
<stop offset="0.2153" stop-color="#DD8654" stop-opacity="0.215"/>
<stop offset="0.4291" stop-color="#E28448" stop-opacity="0.429"/>
<stop offset="0.6424" stop-color="#EA8034" stop-opacity="0.642"/>
<stop offset="0.8543" stop-color="#F47B18" stop-opacity="0.854"/>
<stop offset="1" stop-color="#FE7701"/>
</linearGradient>
<linearGradient id="paint26_linear_601_57" x1="121.642" y1="146.071" x2="121.642" y2="135.482" gradientUnits="userSpaceOnUse">
<stop stop-color="#DC8758" stop-opacity="0"/>
<stop offset="0.2153" stop-color="#DD8654" stop-opacity="0.215"/>
<stop offset="0.4291" stop-color="#E28448" stop-opacity="0.429"/>
<stop offset="0.6424" stop-color="#EA8034" stop-opacity="0.642"/>
<stop offset="0.8543" stop-color="#F47B18" stop-opacity="0.854"/>
<stop offset="1" stop-color="#FE7701"/>
</linearGradient>
<linearGradient id="paint27_linear_601_57" x1="139.416" y1="145.041" x2="153.737" y2="155.583" gradientUnits="userSpaceOnUse">
<stop stop-color="#DC8758" stop-opacity="0"/>
<stop offset="0.2153" stop-color="#DD8654" stop-opacity="0.215"/>
<stop offset="0.4291" stop-color="#E28448" stop-opacity="0.429"/>
<stop offset="0.6424" stop-color="#EA8034" stop-opacity="0.642"/>
<stop offset="0.8543" stop-color="#F47B18" stop-opacity="0.854"/>
<stop offset="1" stop-color="#FE7701"/>
</linearGradient>
<linearGradient id="paint28_linear_601_57" x1="115.929" y1="128.024" x2="133.203" y2="128.024" gradientUnits="userSpaceOnUse">
<stop stop-color="#FD4755"/>
<stop offset="0.3362" stop-color="#E43F48"/>
<stop offset="1" stop-color="#A72B2B"/>
</linearGradient>
<linearGradient id="paint29_linear_601_57" x1="121.642" y1="121.353" x2="121.642" y2="132.282" gradientUnits="userSpaceOnUse">
<stop stop-color="#A72B2B" stop-opacity="0"/>
<stop offset="1" stop-color="#481F05"/>
</linearGradient>
</defs>
</svg>
