<svg width="246" height="246" viewBox="0 0 246 246" fill="none" xmlns="http://www.w3.org/2000/svg">
<path d="M238.219 106.078L216.437 84.297V53.4845C216.437 40.2709 205.724 29.5626 192.51 29.5626H161.703L139.917 7.77612C130.573 -1.56763 115.422 -1.56763 106.078 7.77612L84.2967 29.5626H53.4842C40.2707 29.5626 29.5623 40.2709 29.5623 53.4845V84.297L7.77588 106.078C-1.56787 115.422 -1.56787 130.573 7.77588 139.917L29.5623 161.703V192.511C29.5623 205.724 40.2707 216.438 53.4842 216.438H84.2967L106.078 238.219C115.422 247.563 130.573 247.563 139.917 238.219L161.703 216.438H192.51C205.724 216.438 216.437 205.724 216.437 192.511V161.703L238.219 139.917C247.562 130.573 247.562 115.422 238.219 106.078Z" fill="#E6F2D8"/>
<path d="M231.094 109.531L208.953 87.3958V56.0885C208.953 45.5729 200.432 37.0417 189.911 37.0417H158.604L136.464 14.9063C129.031 7.46875 116.974 7.46875 109.531 14.9063L87.3958 37.0417H56.0885C45.5729 37.0417 37.0417 45.5677 37.0417 56.0885V87.3958L14.9063 109.531C7.46875 116.969 7.46875 129.026 14.9063 136.464L37.0417 158.604V189.911C37.0417 200.427 45.5677 208.953 56.0885 208.953H87.3958L109.531 231.094C116.969 238.526 129.026 238.526 136.464 231.094L158.604 208.953H189.911C200.427 208.953 208.953 200.432 208.953 189.911V158.604L231.094 136.464C238.526 129.031 238.526 116.974 231.094 109.531Z" fill="#E6F2D8"/>
<path d="M223.557 110.375L203.026 89.849V60.8125C203.026 50.9531 195.036 42.9635 185.177 42.9635H156.146L135.615 22.4375C128.646 15.4687 117.344 15.4687 110.375 22.4375L89.849 42.9635H60.8125C50.9583 42.9635 42.9635 50.9531 42.9635 60.8125V89.849L22.4375 110.375C15.4687 117.344 15.4687 128.646 22.4375 135.615L42.9635 156.146V185.177C42.9635 195.036 50.9583 203.026 60.8125 203.026H89.849L110.375 223.557C117.344 230.521 128.646 230.521 135.615 223.557L156.146 203.026H185.177C195.036 203.026 203.026 195.036 203.026 185.177V156.146L223.557 135.615C230.521 128.646 230.521 117.344 223.557 110.375Z" fill="#5DB884"/>
<mask id="mask0_601_94" style="mask-type:luminance" maskUnits="userSpaceOnUse" x="90" y="80" width="61" height="21">
<path d="M90.3906 80.7188H151V100.333H90.3906V80.7188Z" fill="white"/>
</mask>
<g mask="url(#mask0_601_94)">
<path d="M150.031 80.7188H90.8229C90.8229 80.7188 90.4167 86.3021 97.6979 87.2188V85.2135H115.802V99.9323L120.047 94.0313L124.297 99.9323V85.2135H150.031V80.7188Z" fill="white"/>
</g>
<mask id="mask1_601_94" style="mask-type:luminance" maskUnits="userSpaceOnUse" x="90" y="85" width="9" height="81">
<path d="M90.3906 85.6667H99V165.667H90.3906V85.6667Z" fill="white"/>
</mask>
<g mask="url(#mask1_601_94)">
<path d="M97.6979 89.3646C94.7344 89.0417 92.4271 88.026 90.8334 86.3125C90.8334 86.3073 90.8281 86.3021 90.8229 86.2969V158.641C90.8229 158.641 90.4167 164.229 97.6979 165.146V89.3646Z" fill="white"/>
</g>
<path d="M133.328 121.734H130.432L127.719 119.016L125 121.734H122.104V124.625L119.385 127.344L122.104 130.063V132.958H125L127.719 135.677L130.432 132.958H133.328V130.063L136.047 127.344L133.328 124.625V121.734Z" fill="white"/>
<mask id="mask2_601_94" style="mask-type:luminance" maskUnits="userSpaceOnUse" x="99" y="87" width="57" height="79">
<path d="M99 87H155.391V165.667H99V87Z" fill="white"/>
</mask>
<g mask="url(#mask2_601_94)">
<path d="M139.5 133.047V139.125H133.422L127.719 144.833L122.016 139.125H115.938V133.047L110.229 127.344L115.938 121.641V115.563H122.016L127.719 109.859L133.422 115.563H139.5V121.641L145.203 127.344L139.5 133.047ZM126.438 87.3542V106.563L120.047 97.6928L113.662 106.563V87.3542H99.8335V165.281H155.599V87.3542H126.438Z" fill="white"/>
</g>
</svg>
