<svg width="254" height="254" viewBox="0 0 254 254" fill="none" xmlns="http://www.w3.org/2000/svg">
<path d="M246.719 109.422L224.084 86.7916V54.776C224.084 41.0468 212.953 29.9166 199.224 29.9166H167.214L144.578 7.28638C134.875 -2.42196 119.13 -2.42196 109.422 7.28638L86.7918 29.9166H54.7762C41.047 29.9166 29.9168 41.0468 29.9168 54.776V86.7916L7.28662 109.422C-2.42171 119.13 -2.42171 134.875 7.28662 144.578L29.9168 167.213V199.224C29.9168 212.953 41.047 224.083 54.7762 224.083H86.7918L109.422 246.719C119.13 256.427 134.875 256.427 144.578 246.719L167.214 224.083H199.224C212.953 224.083 224.084 212.953 224.084 199.224V167.213L246.719 144.578C256.427 134.875 256.427 119.13 246.719 109.422Z" fill="#E6F2D8"/>
<path d="M239.313 113.01L216.313 90.0103V57.4791C216.313 46.5572 207.453 37.6926 196.521 37.6926H163.995L140.995 14.6926C133.271 6.96867 120.74 6.96867 113.011 14.6926L90.0106 37.6926H57.4793C46.5575 37.6926 37.6929 46.5468 37.6929 57.4791V90.0103L14.6929 113.01C6.96891 120.734 6.96891 133.266 14.6929 140.995L37.6929 163.995V196.521C37.6929 207.448 46.547 216.312 57.4793 216.312H90.0106L113.011 239.312C120.735 247.036 133.266 247.036 140.995 239.312L163.995 216.312H196.521C207.448 216.312 216.313 207.453 216.313 196.521V163.995L239.313 140.995C247.037 133.271 247.037 120.74 239.313 113.01Z" fill="#E6F2D8"/>
<path d="M231.479 113.885L210.151 92.5573V62.3906C210.151 52.151 201.849 43.8438 191.609 43.8438H161.443L140.109 22.5156C132.87 15.276 121.125 15.276 113.885 22.5156L92.5573 43.8438H62.3906C52.151 43.8438 43.8438 52.151 43.8438 62.3906V92.5573L22.5156 113.885C15.276 121.125 15.276 132.87 22.5156 140.109L43.8438 161.443V191.609C43.8438 201.849 52.151 210.151 62.3906 210.151H92.5573L113.885 231.479C121.125 238.719 132.87 238.719 140.109 231.479L161.443 210.151H191.609C201.849 210.151 210.151 201.849 210.151 191.609V161.443L231.479 140.109C238.719 132.87 238.719 121.125 231.479 113.885Z" fill="#5DB884"/>
<path d="M110.776 151.063C106.672 140.932 105.765 132.193 113.109 124.37C118.614 117.188 132.995 110.031 134.239 100.958C136.823 82.323 112.724 87.1824 114.651 100.688C115.64 107.573 112.792 110.396 107.667 112.792C100.713 116.052 95.8697 115.979 95.2082 98.5834C94.7551 86.6407 103.802 75.8282 115.422 73.7241C129.437 69.9011 151.109 76.4428 155.927 90.9376C159.484 101.417 154.614 114.234 144.776 121.25C129.417 132.219 122.646 134.99 122.614 148.292C122.594 154.662 113.26 157.188 110.776 151.063Z" fill="#F1F8E9"/>
<path d="M131.297 168.312C132.182 171.484 132.005 175.073 130.193 177.901C126.266 184.052 119.12 183.286 113.479 180.932C108.693 178.948 106.776 172.995 108.886 168.411C111.412 162.932 115.667 160.172 120.474 160.375C126.901 160.641 129.735 162.667 131.297 168.312Z" fill="#F1F8E9"/>
</svg>
